<?xml version="1.0" standalone="no"?>
<!DOCTYPE svg PUBLIC "-//W3C//DTD SVG 20010904//EN"
 "http://www.w3.org/TR/2001/REC-SVG-20010904/DTD/svg10.dtd">
<svg version="1.0" xmlns="http://www.w3.org/2000/svg"
 width="512.000000pt" height="512.000000pt" viewBox="0 0 512.000000 512.000000"
 preserveAspectRatio="xMidYMid meet">
<metadata>
Created by potrace 1.11, written by Peter Selinger 2001-2013
</metadata>
<g transform="translate(0.000000,512.000000) scale(0.100000,-0.100000)"
fill="#000000" stroke="none">
<path d="M1720 4410 c0 -6 -30 -10 -70 -10 -40 0 -70 -4 -70 -10 0 -5 -22 -10
-50 -10 -27 0 -50 -4 -50 -10 0 -5 -13 -10 -30 -10 -16 0 -30 -4 -30 -10 0 -5
-13 -10 -30 -10 -16 0 -30 -4 -30 -10 0 -5 -13 -10 -30 -10 -16 0 -30 -4 -30
-10 0 -5 -9 -10 -20 -10 -11 0 -20 -4 -20 -10 0 -5 -13 -10 -30 -10 -16 0 -30
-4 -30 -10 0 -5 -8 -10 -18 -10 -10 0 -24 -9 -32 -20 -8 -11 -22 -20 -32 -20
-10 0 -18 -4 -18 -10 0 -5 -8 -10 -18 -10 -10 0 -24 -9 -32 -20 -8 -11 -21
-20 -30 -20 -9 0 -22 -9 -30 -20 -8 -11 -20 -20 -27 -20 -16 0 -263 -245 -263
-261 0 -6 -13 -24 -30 -39 -16 -15 -30 -34 -30 -42 0 -7 -9 -20 -20 -28 -11
-8 -20 -22 -20 -32 0 -10 -4 -18 -10 -18 -5 0 -10 -9 -10 -20 0 -11 -4 -20
-10 -20 -5 0 -10 -9 -10 -20 0 -11 -4 -20 -10 -20 -5 0 -10 -9 -10 -20 0 -11
-4 -20 -10 -20 -5 0 -10 -9 -10 -20 0 -11 -4 -20 -10 -20 -5 0 -10 -9 -10 -20
0 -11 -4 -20 -10 -20 -5 0 -10 -13 -10 -30 0 -16 -4 -30 -10 -30 -5 0 -10 -13
-10 -30 0 -16 -4 -30 -10 -30 -5 0 -10 -18 -10 -40 0 -22 -4 -40 -10 -40 -6 0
-10 -27 -10 -60 0 -33 -4 -60 -10 -60 -6 0 -10 -80 -10 -220 0 -140 4 -220 10
-220 6 0 10 -22 10 -50 0 -27 5 -50 10 -50 6 0 10 -18 10 -40 0 -22 5 -40 10
-40 6 0 10 -13 10 -30 0 -16 5 -30 10 -30 6 0 10 -13 10 -30 0 -16 5 -30 10
-30 6 0 10 -9 10 -20 0 -11 5 -20 10 -20 6 0 10 -13 10 -30 0 -16 5 -30 10
-30 6 0 10 -9 10 -20 0 -11 5 -20 10 -20 6 0 10 -8 10 -18 0 -10 9 -24 20 -32
11 -8 20 -22 20 -32 0 -10 5 -18 10 -18 6 0 10 -9 10 -20 0 -11 5 -20 10 -20
6 0 10 -9 10 -20 0 -11 5 -20 10 -20 6 0 10 -9 10 -20 0 -11 5 -20 10 -20 6 0
10 -9 10 -20 0 -11 5 -20 10 -20 6 0 10 -18 10 -40 0 -22 5 -40 10 -40 6 0 10
-27 10 -60 0 -33 -4 -60 -10 -60 -5 0 -10 -13 -10 -28 0 -16 -8 -34 -20 -42
-11 -8 -20 -20 -20 -28 0 -16 -24 -42 -40 -42 -6 0 -26 -16 -45 -35 -43 -42
-47 -84 -10 -120 l24 -25 701 0 c743 0 730 1 730 -44 0 -9 5 -16 10 -16 6 0
10 -8 10 -18 0 -10 9 -24 20 -32 11 -8 20 -21 20 -28 0 -8 13 -27 30 -42 17
-15 30 -33 30 -39 0 -15 226 -241 241 -241 6 0 24 -13 39 -30 15 -16 34 -30
42 -30 7 0 20 -9 28 -20 8 -11 22 -20 32 -20 10 0 18 -4 18 -10 0 -5 8 -10 18
-10 10 0 24 -9 32 -20 8 -11 22 -20 32 -20 10 0 18 -4 18 -10 0 -5 9 -10 20
-10 11 0 20 -4 20 -10 0 -5 9 -10 20 -10 11 0 20 -4 20 -10 0 -5 14 -10 30
-10 17 0 30 -4 30 -10 0 -5 9 -10 20 -10 11 0 20 -4 20 -10 0 -5 14 -10 30
-10 17 0 30 -4 30 -10 0 -5 18 -10 40 -10 22 0 40 -4 40 -10 0 -5 18 -10 40
-10 22 0 40 -4 40 -10 0 -6 27 -10 60 -10 33 0 60 -4 60 -10 0 -7 235 -10 685
-10 l686 0 24 25 c37 36 33 78 -10 120 -19 19 -39 35 -45 35 -16 0 -40 26 -40
42 0 8 -9 20 -20 28 -12 8 -20 26 -20 42 0 15 -4 28 -10 28 -6 0 -10 27 -10
60 0 33 4 60 10 60 6 0 10 18 10 40 0 22 5 40 10 40 6 0 10 9 10 20 0 11 5 20
10 20 6 0 10 9 10 20 0 11 5 20 10 20 6 0 10 9 10 20 0 11 5 20 10 20 6 0 10
9 10 20 0 11 5 20 10 20 6 0 10 8 10 18 0 10 9 24 20 32 11 8 20 22 20 32 0
10 5 18 10 18 6 0 10 9 10 20 0 11 5 20 10 20 6 0 10 14 10 30 0 17 5 30 10
30 6 0 10 9 10 20 0 11 5 20 10 20 6 0 10 14 10 30 0 17 5 30 10 30 6 0 10 14
10 30 0 17 5 30 10 30 6 0 10 18 10 40 0 22 5 40 10 40 6 0 10 23 10 50 0 28
5 50 10 50 6 0 10 83 10 230 0 147 -4 230 -10 230 -5 0 -10 23 -10 50 0 28 -4
50 -10 50 -5 0 -10 18 -10 40 0 22 -4 40 -10 40 -5 0 -10 14 -10 30 0 17 -4
30 -10 30 -5 0 -10 14 -10 30 0 17 -4 30 -10 30 -5 0 -10 9 -10 20 0 11 -4 20
-10 20 -5 0 -10 9 -10 20 0 11 -4 20 -10 20 -5 0 -10 9 -10 20 0 11 -4 20 -10
20 -5 0 -10 9 -10 20 0 11 -4 20 -10 20 -5 0 -10 9 -10 20 0 11 -4 20 -10 20
-5 0 -10 8 -10 18 0 10 -9 24 -20 32 -11 8 -20 21 -20 28 0 8 -14 27 -30 42
-16 15 -30 33 -30 39 0 15 -226 241 -241 241 -6 0 -24 14 -39 30 -15 17 -34
30 -42 30 -7 0 -20 9 -28 20 -8 11 -22 20 -32 20 -10 0 -18 5 -18 10 0 6 -8
10 -18 10 -10 0 -24 9 -32 20 -8 11 -22 20 -32 20 -10 0 -18 5 -18 10 0 6 -13
10 -30 10 -16 0 -30 5 -30 10 0 6 -9 10 -20 10 -11 0 -20 5 -20 10 0 6 -9 10
-20 10 -11 0 -20 5 -20 10 0 6 -13 10 -30 10 -16 0 -30 5 -30 10 0 6 -18 10
-40 10 -22 0 -40 5 -40 10 0 6 -18 10 -40 10 -22 0 -40 5 -40 10 0 6 -30 10
-70 10 -40 0 -70 4 -70 10 0 6 -57 10 -150 10 -143 0 -150 1 -150 20 0 11 -4
20 -10 20 -5 0 -10 8 -10 18 0 10 -9 24 -20 32 -11 8 -20 21 -20 30 0 9 -9 22
-20 30 -11 8 -20 21 -20 28 0 8 -13 27 -30 42 -16 15 -30 33 -30 39 0 15 -206
221 -221 221 -6 0 -24 14 -39 30 -15 17 -34 30 -42 30 -7 0 -20 9 -28 20 -8
11 -21 20 -30 20 -9 0 -22 9 -30 20 -8 11 -22 20 -32 20 -10 0 -18 5 -18 10 0
6 -9 10 -20 10 -11 0 -20 5 -20 10 0 6 -9 10 -20 10 -11 0 -20 5 -20 10 0 6
-13 10 -30 10 -16 0 -30 5 -30 10 0 6 -9 10 -20 10 -11 0 -20 5 -20 10 0 6
-13 10 -30 10 -16 0 -30 5 -30 10 0 6 -18 10 -40 10 -22 0 -40 5 -40 10 0 6
-18 10 -40 10 -22 0 -40 5 -40 10 0 6 -33 10 -80 10 -47 0 -80 4 -80 10 0 6
-47 10 -120 10 -73 0 -120 -4 -120 -10z m240 -160 c0 -6 27 -10 60 -10 33 0
60 -4 60 -10 0 -5 23 -10 50 -10 28 0 50 -4 50 -10 0 -5 14 -10 30 -10 17 0
30 -4 30 -10 0 -5 14 -10 30 -10 17 0 30 -4 30 -10 0 -5 9 -10 20 -10 11 0 20
-4 20 -10 0 -5 9 -10 20 -10 11 0 20 -4 20 -10 0 -5 13 -10 28 -10 16 0 34 -8
42 -20 8 -11 22 -20 32 -20 10 0 18 -4 18 -10 0 -5 8 -10 18 -10 10 0 24 -9
32 -20 8 -11 21 -20 28 -20 8 0 27 -13 42 -30 15 -16 33 -30 39 -30 15 0 181
-166 181 -181 0 -6 14 -24 30 -39 17 -15 30 -34 30 -42 0 -7 9 -20 20 -28 11
-8 20 -22 20 -32 0 -10 5 -18 10 -18 6 0 10 -9 10 -20 0 -11 5 -20 10 -20 6 0
10 -9 10 -20 0 -11 5 -20 10 -20 6 0 10 -9 10 -20 0 -11 5 -20 10 -20 6 0 10
-9 10 -20 0 -11 5 -20 10 -20 6 0 10 -13 10 -30 0 -16 5 -30 10 -30 6 0 10
-13 10 -30 0 -16 5 -30 10 -30 6 0 10 -13 10 -30 0 -16 5 -30 10 -30 6 0 10
-27 10 -60 0 -33 4 -60 10 -60 6 0 10 -70 10 -190 0 -120 -4 -190 -10 -190 -5
0 -10 -22 -10 -50 0 -27 -4 -50 -10 -50 -5 0 -10 -18 -10 -40 0 -22 -4 -40
-10 -40 -5 0 -10 -13 -10 -30 0 -16 -4 -30 -10 -30 -5 0 -10 -9 -10 -20 0 -11
-4 -20 -10 -20 -5 0 -10 -9 -10 -20 0 -11 -4 -20 -10 -20 -5 0 -10 -13 -10
-28 0 -16 -8 -34 -20 -42 -11 -8 -20 -22 -20 -32 0 -10 -4 -18 -10 -18 -5 0
-10 -8 -10 -18 0 -10 -9 -24 -20 -32 -11 -8 -20 -21 -20 -28 0 -8 -13 -27 -30
-42 -16 -15 -30 -33 -30 -39 0 -15 -186 -201 -201 -201 -6 0 -24 -14 -39 -30
-15 -17 -34 -30 -42 -30 -7 0 -20 -9 -28 -20 -8 -11 -22 -20 -32 -20 -10 0
-18 -4 -18 -10 0 -5 -9 -10 -20 -10 -11 0 -20 -4 -20 -10 0 -5 -9 -10 -20 -10
-11 0 -20 -4 -20 -10 0 -5 -9 -10 -20 -10 -11 0 -20 -4 -20 -10 0 -5 -9 -10
-20 -10 -11 0 -20 -4 -20 -10 0 -5 -9 -10 -20 -10 -11 0 -20 -4 -20 -10 0 -5
-13 -10 -30 -10 -16 0 -30 -4 -30 -10 0 -5 -18 -10 -40 -10 -22 0 -40 -4 -40
-10 0 -5 -18 -10 -40 -10 -22 0 -40 -4 -40 -10 0 -6 -27 -10 -60 -10 -33 0
-60 -4 -60 -10 0 -7 -194 -10 -561 -10 -445 0 -559 3 -555 13 3 6 9 20 12 30
4 9 10 17 15 17 5 0 9 18 9 40 0 22 5 40 10 40 6 0 10 33 10 80 0 47 -4 80
-10 80 -5 0 -10 18 -10 40 0 22 -4 40 -10 40 -5 0 -10 14 -10 30 0 17 -4 30
-10 30 -5 0 -10 14 -10 30 0 17 -4 30 -10 30 -5 0 -10 9 -10 20 0 11 -4 20
-10 20 -5 0 -10 8 -10 18 0 10 -9 24 -20 32 -11 8 -20 22 -20 32 0 10 -4 18
-10 18 -5 0 -10 9 -10 20 0 11 -4 20 -10 20 -5 0 -10 9 -10 20 0 11 -4 20 -10
20 -5 0 -10 9 -10 20 0 11 -4 20 -10 20 -5 0 -10 9 -10 20 0 11 -4 20 -10 20
-5 0 -10 9 -10 20 0 11 -4 20 -10 20 -5 0 -10 14 -10 30 0 17 -4 30 -10 30 -5
0 -10 18 -10 40 0 22 -4 40 -10 40 -5 0 -10 18 -10 40 0 22 -4 40 -10 40 -6 0
-10 80 -10 220 0 140 4 220 10 220 6 0 10 23 10 50 0 28 5 50 10 50 6 0 10 18
10 40 0 22 5 40 10 40 6 0 10 14 10 30 0 17 5 30 10 30 6 0 10 9 10 20 0 11 5
20 10 20 6 0 10 9 10 20 0 11 5 20 10 20 6 0 10 9 10 20 0 11 5 20 10 20 6 0
10 9 10 20 0 11 5 20 10 20 6 0 10 9 10 20 0 11 5 20 10 20 6 0 10 8 10 18 0
10 9 24 20 32 11 8 20 21 20 28 0 7 18 31 40 52 22 21 40 43 40 49 0 15 146
161 161 161 6 0 24 14 39 30 15 17 34 30 42 30 7 0 20 9 28 20 8 11 21 20 30
20 9 0 22 9 30 20 8 11 22 20 32 20 10 0 18 5 18 10 0 6 9 10 20 10 11 0 20 5
20 10 0 6 9 10 20 10 11 0 20 5 20 10 0 6 14 10 30 10 17 0 30 5 30 10 0 6 9
10 20 10 11 0 20 5 20 10 0 6 18 10 40 10 22 0 40 5 40 10 0 6 18 10 40 10 22
0 40 5 40 10 0 6 27 10 60 10 33 0 60 4 60 10 0 6 50 10 130 10 80 0 130 -4
130 -10z m1420 -800 c0 -6 30 -10 70 -10 40 0 70 -4 70 -10 0 -5 23 -10 50
-10 28 0 50 -4 50 -10 0 -5 14 -10 30 -10 17 0 30 -4 30 -10 0 -5 14 -10 30
-10 17 0 30 -4 30 -10 0 -5 14 -10 30 -10 17 0 30 -4 30 -10 0 -5 9 -10 20
-10 11 0 20 -4 20 -10 0 -5 9 -10 20 -10 11 0 20 -4 20 -10 0 -5 8 -10 18 -10
10 0 24 -9 32 -20 8 -11 21 -20 30 -20 9 0 22 -9 30 -20 8 -11 21 -20 28 -20
8 0 27 -13 42 -30 15 -16 33 -30 39 -30 15 0 181 -166 181 -181 0 -6 14 -24
30 -39 17 -15 30 -34 30 -42 0 -7 9 -20 20 -28 11 -8 20 -22 20 -32 0 -10 5
-18 10 -18 6 0 10 -9 10 -20 0 -11 5 -20 10 -20 6 0 10 -9 10 -20 0 -11 5 -20
10 -20 6 0 10 -9 10 -20 0 -11 5 -20 10 -20 6 0 10 -9 10 -20 0 -11 5 -20 10
-20 6 0 10 -13 10 -30 0 -16 5 -30 10 -30 6 0 10 -13 10 -30 0 -16 5 -30 10
-30 6 0 10 -13 10 -30 0 -16 5 -30 10 -30 6 0 10 -22 10 -50 0 -27 5 -50 10
-50 6 0 10 -77 10 -210 0 -133 -4 -210 -10 -210 -5 0 -10 -22 -10 -50 0 -27
-4 -50 -10 -50 -5 0 -10 -18 -10 -40 0 -22 -4 -40 -10 -40 -5 0 -10 -9 -10
-20 0 -11 -4 -20 -10 -20 -5 0 -10 -13 -10 -30 0 -16 -4 -30 -10 -30 -5 0 -10
-9 -10 -20 0 -11 -4 -20 -10 -20 -5 0 -10 -9 -10 -20 0 -11 -4 -20 -10 -20 -5
0 -10 -9 -10 -20 0 -11 -4 -20 -10 -20 -5 0 -10 -9 -10 -20 0 -11 -4 -20 -10
-20 -5 0 -10 -8 -10 -18 0 -10 -9 -24 -20 -32 -11 -8 -20 -22 -20 -32 0 -10
-4 -18 -10 -18 -5 0 -10 -9 -10 -20 0 -11 -4 -20 -10 -20 -5 0 -10 -13 -10
-30 0 -16 -4 -30 -10 -30 -5 0 -10 -13 -10 -30 0 -16 -4 -30 -10 -30 -5 0 -10
-18 -10 -40 0 -22 -4 -40 -10 -40 -6 0 -10 -33 -10 -80 0 -47 4 -80 10 -80 6
0 10 -18 10 -40 0 -22 4 -40 9 -40 5 0 11 -8 15 -17 3 -10 9 -24 12 -30 4 -10
-108 -13 -545 -13 -361 0 -551 3 -551 10 0 6 -30 10 -70 10 -40 0 -70 4 -70
10 0 6 -18 10 -40 10 -22 0 -40 5 -40 10 0 6 -13 10 -30 10 -16 0 -30 5 -30
10 0 6 -13 10 -30 10 -16 0 -30 5 -30 10 0 6 -13 10 -30 10 -16 0 -30 5 -30
10 0 6 -9 10 -20 10 -11 0 -20 5 -20 10 0 6 -9 10 -20 10 -11 0 -20 5 -20 10
0 6 -9 10 -20 10 -11 0 -20 5 -20 10 0 6 -8 10 -18 10 -10 0 -24 9 -32 20 -8
11 -21 20 -30 20 -9 0 -22 9 -30 20 -8 11 -21 20 -28 20 -8 0 -27 14 -42 30
-15 17 -33 30 -39 30 -15 0 -161 146 -161 161 0 6 -18 28 -40 49 -22 21 -40
44 -40 51 0 6 -8 19 -17 28 -10 9 -24 26 -31 39 -10 19 -10 25 2 37 8 8 26 15
40 15 14 0 26 5 26 10 0 6 14 10 30 10 17 0 30 5 30 10 0 6 9 10 19 10 11 0
23 5 26 10 3 6 17 10 31 10 13 0 24 5 24 10 0 6 9 10 20 10 11 0 20 5 20 10 0
6 9 10 20 10 11 0 20 5 20 10 0 6 8 10 18 10 10 0 24 9 32 20 8 11 22 20 32
20 10 0 18 5 18 10 0 6 7 10 16 10 9 0 29 14 44 30 15 17 33 30 40 30 7 0 25
14 40 30 15 17 33 30 39 30 15 0 181 166 181 181 0 6 18 28 40 49 22 21 40 45
40 52 0 7 9 20 20 28 11 8 20 21 20 30 0 9 9 22 20 30 11 8 20 22 20 32 0 10
5 18 10 18 6 0 10 9 10 20 0 11 5 20 10 20 6 0 10 9 10 20 0 11 5 20 10 20 6
0 10 9 10 20 0 11 5 20 10 20 6 0 10 9 10 20 0 11 5 20 10 20 6 0 10 14 10 30
0 17 5 30 10 30 6 0 10 14 10 30 0 17 5 30 10 30 6 0 10 14 10 30 0 17 5 30
10 30 6 0 10 23 10 50 0 28 5 50 10 50 6 0 10 83 10 230 0 147 -4 230 -10 230
-5 0 -10 23 -10 50 0 28 -4 50 -10 50 -5 0 -10 14 -10 30 0 17 -4 30 -10 30
-5 0 -10 15 -10 34 0 19 -4 38 -10 41 -27 17 -2 25 80 25 53 0 90 -4 90 -10z"/>
<path d="M1303 3175 c-31 -33 -30 -79 2 -110 l24 -25 511 0 511 0 24 25 c16
15 25 36 25 55 0 19 -9 40 -25 55 l-24 25 -513 -1 -513 0 -22 -24z"/>
<path d="M1303 2775 c-31 -33 -30 -79 2 -110 l24 -25 511 0 511 0 24 25 c16
15 25 36 25 55 0 19 -9 40 -25 55 l-24 25 -513 -1 -513 0 -22 -24z"/>
</g>
</svg>
